<svg width="9" height="11" viewBox="0 0 9 11" fill="none" xmlns="http://www.w3.org/2000/svg">
<path d="M3.01562 5.875C3.07422 5.875 3.13281 5.85547 3.17188 5.81641C3.21094 5.77734 3.25 5.71875 3.25 5.64062V4.85938C3.25 4.80078 3.21094 4.74219 3.17188 4.70312C3.13281 4.66406 3.07422 4.625 3.01562 4.625H2.23438C2.15625 4.625 2.09766 4.66406 2.05859 4.70312C2.01953 4.74219 2 4.80078 2 4.85938V5.64062C2 5.71875 2.01953 5.77734 2.05859 5.81641C2.09766 5.85547 2.15625 5.875 2.23438 5.875H3.01562ZM5.125 5.64062C5.125 5.71875 5.08594 5.77734 5.04688 5.81641C5.00781 5.85547 4.94922 5.875 4.89062 5.875H4.10938C4.03125 5.875 3.97266 5.85547 3.93359 5.81641C3.89453 5.77734 3.875 5.71875 3.875 5.64062V4.85938C3.875 4.80078 3.89453 4.74219 3.93359 4.70312C3.97266 4.66406 4.03125 4.625 4.10938 4.625H4.89062C4.94922 4.625 5.00781 4.66406 5.04688 4.70312C5.08594 4.74219 5.125 4.80078 5.125 4.85938V5.64062ZM7 5.64062C7 5.71875 6.96094 5.77734 6.92188 5.81641C6.88281 5.85547 6.82422 5.875 6.76562 5.875H5.98438C5.90625 5.875 5.84766 5.85547 5.80859 5.81641C5.76953 5.77734 5.75 5.71875 5.75 5.64062V4.85938C5.75 4.80078 5.76953 4.74219 5.80859 4.70312C5.84766 4.66406 5.90625 4.625 5.98438 4.625H6.76562C6.82422 4.625 6.88281 4.66406 6.92188 4.70312C6.96094 4.74219 7 4.80078 7 4.85938V5.64062ZM5.125 7.51562C5.125 7.59375 5.08594 7.65234 5.04688 7.69141C5.00781 7.73047 4.94922 7.75 4.89062 7.75H4.10938C4.03125 7.75 3.97266 7.73047 3.93359 7.69141C3.89453 7.65234 3.875 7.59375 3.875 7.51562V6.73438C3.875 6.67578 3.89453 6.61719 3.93359 6.57812C3.97266 6.53906 4.03125 6.5 4.10938 6.5H4.89062C4.94922 6.5 5.00781 6.53906 5.04688 6.57812C5.08594 6.61719 5.125 6.67578 5.125 6.73438V7.51562ZM3.25 7.51562C3.25 7.59375 3.21094 7.65234 3.17188 7.69141C3.13281 7.73047 3.07422 7.75 3.01562 7.75H2.23438C2.15625 7.75 2.09766 7.73047 2.05859 7.69141C2.01953 7.65234 2 7.59375 2 7.51562V6.73438C2 6.67578 2.01953 6.61719 2.05859 6.57812C2.09766 6.53906 2.15625 6.5 2.23438 6.5H3.01562C3.07422 6.5 3.13281 6.53906 3.17188 6.57812C3.21094 6.61719 3.25 6.67578 3.25 6.73438V7.51562ZM7 7.51562C7 7.59375 6.96094 7.65234 6.92188 7.69141C6.88281 7.73047 6.82422 7.75 6.76562 7.75H5.98438C5.90625 7.75 5.84766 7.73047 5.80859 7.69141C5.76953 7.65234 5.75 7.59375 5.75 7.51562V6.73438C5.75 6.67578 5.76953 6.61719 5.80859 6.57812C5.84766 6.53906 5.90625 6.5 5.98438 6.5H6.76562C6.82422 6.5 6.88281 6.53906 6.92188 6.57812C6.96094 6.61719 7 6.67578 7 6.73438V7.51562ZM8.875 2.4375C8.875 2.18359 8.77734 1.96875 8.60156 1.77344C8.40625 1.59766 8.19141 1.5 7.9375 1.5H7V0.484375C7 0.425781 6.96094 0.367188 6.92188 0.328125C6.88281 0.289062 6.82422 0.25 6.76562 0.25H5.98438C5.90625 0.25 5.84766 0.289062 5.80859 0.328125C5.76953 0.367188 5.75 0.425781 5.75 0.484375V1.5H3.25V0.484375C3.25 0.425781 3.21094 0.367188 3.17188 0.328125C3.13281 0.289062 3.07422 0.25 3.01562 0.25H2.23438C2.15625 0.25 2.09766 0.289062 2.05859 0.328125C2.01953 0.367188 2 0.425781 2 0.484375V1.5H1.0625C0.789062 1.5 0.574219 1.59766 0.398438 1.77344C0.203125 1.96875 0.125 2.18359 0.125 2.4375V9.3125C0.125 9.58594 0.203125 9.80078 0.398438 9.97656C0.574219 10.1719 0.789062 10.25 1.0625 10.25H7.9375C8.19141 10.25 8.40625 10.1719 8.60156 9.97656C8.77734 9.80078 8.875 9.58594 8.875 9.3125V2.4375ZM7.9375 9.19531C7.9375 9.23438 7.91797 9.25391 7.89844 9.27344C7.85938 9.3125 7.83984 9.3125 7.82031 9.3125H1.17969C1.14062 9.3125 1.12109 9.3125 1.10156 9.27344C1.0625 9.25391 1.0625 9.23438 1.0625 9.19531V3.375H7.9375V9.19531Z" fill="#343434"/>
</svg>
